<mxfile host="app.diagrams.net" modified="2021-05-13T12:45:54.137Z" agent="5.0 (Windows NT 10.0; Win64; x64) AppleWebKit/537.36 (KHTML, like Gecko) Chrome/90.0.4430.93 Safari/537.36" etag="afDmd_J3-DP4aF-gPhLI" version="14.6.12" type="github">
  <diagram id="9RiyCjR7skHlwrRM5I-I" name="Page-1">
    <mxGraphModel dx="1038" dy="548" grid="1" gridSize="10" guides="1" tooltips="1" connect="1" arrows="1" fold="1" page="1" pageScale="1" pageWidth="850" pageHeight="1100" math="0" shadow="0">
      <root>
        <mxCell id="0" />
        <mxCell id="1" parent="0" />
        <mxCell id="4oqtvgJZPqDmneg2U7kf-5" style="edgeStyle=orthogonalEdgeStyle;rounded=0;orthogonalLoop=1;jettySize=auto;html=1;" edge="1" parent="1" source="4oqtvgJZPqDmneg2U7kf-1" target="4oqtvgJZPqDmneg2U7kf-6">
          <mxGeometry relative="1" as="geometry">
            <mxPoint x="330" y="145" as="targetPoint" />
          </mxGeometry>
        </mxCell>
        <mxCell id="4oqtvgJZPqDmneg2U7kf-1" value="Login Screen" style="rounded=0;whiteSpace=wrap;html=1;fillColor=#dae8fc;strokeColor=#6c8ebf;" vertex="1" parent="1">
          <mxGeometry x="60" y="40" width="100" height="210" as="geometry" />
        </mxCell>
        <mxCell id="4oqtvgJZPqDmneg2U7kf-8" value="" style="edgeStyle=orthogonalEdgeStyle;rounded=0;orthogonalLoop=1;jettySize=auto;html=1;" edge="1" parent="1" source="4oqtvgJZPqDmneg2U7kf-6" target="4oqtvgJZPqDmneg2U7kf-7">
          <mxGeometry relative="1" as="geometry" />
        </mxCell>
        <mxCell id="4oqtvgJZPqDmneg2U7kf-6" value="Client Key&lt;br&gt;Client Secret&amp;nbsp;" style="rounded=0;whiteSpace=wrap;html=1;fillColor=#d5e8d4;strokeColor=#82b366;" vertex="1" parent="1">
          <mxGeometry x="200" y="115" width="120" height="60" as="geometry" />
        </mxCell>
        <mxCell id="4oqtvgJZPqDmneg2U7kf-10" value="" style="edgeStyle=orthogonalEdgeStyle;rounded=0;orthogonalLoop=1;jettySize=auto;html=1;" edge="1" parent="1" source="4oqtvgJZPqDmneg2U7kf-7" target="4oqtvgJZPqDmneg2U7kf-9">
          <mxGeometry relative="1" as="geometry" />
        </mxCell>
        <mxCell id="4oqtvgJZPqDmneg2U7kf-12" value="If passed matches&amp;nbsp;" style="edgeLabel;html=1;align=center;verticalAlign=middle;resizable=0;points=[];" vertex="1" connectable="0" parent="4oqtvgJZPqDmneg2U7kf-10">
          <mxGeometry x="-0.4309" y="2" relative="1" as="geometry">
            <mxPoint x="20" y="2" as="offset" />
          </mxGeometry>
        </mxCell>
        <mxCell id="4oqtvgJZPqDmneg2U7kf-7" value="Covert to Base64&lt;br&gt;using&amp;nbsp;CreateSha256Value" style="rounded=0;whiteSpace=wrap;html=1;fillColor=#f5f5f5;strokeColor=#666666;fontColor=#333333;" vertex="1" parent="1">
          <mxGeometry x="375" y="117.5" width="150" height="55" as="geometry" />
        </mxCell>
        <mxCell id="4oqtvgJZPqDmneg2U7kf-14" value="" style="edgeStyle=orthogonalEdgeStyle;rounded=0;orthogonalLoop=1;jettySize=auto;html=1;" edge="1" parent="1" source="4oqtvgJZPqDmneg2U7kf-9" target="4oqtvgJZPqDmneg2U7kf-13">
          <mxGeometry relative="1" as="geometry" />
        </mxCell>
        <mxCell id="4oqtvgJZPqDmneg2U7kf-9" value="Create token" style="rounded=0;whiteSpace=wrap;html=1;fillColor=#d5e8d4;strokeColor=#82b366;" vertex="1" parent="1">
          <mxGeometry x="670" y="115" width="120" height="60" as="geometry" />
        </mxCell>
        <mxCell id="4oqtvgJZPqDmneg2U7kf-18" value="Redirect to Home controller" style="edgeStyle=orthogonalEdgeStyle;rounded=0;orthogonalLoop=1;jettySize=auto;html=1;" edge="1" parent="1" source="4oqtvgJZPqDmneg2U7kf-13" target="4oqtvgJZPqDmneg2U7kf-17">
          <mxGeometry relative="1" as="geometry" />
        </mxCell>
        <mxCell id="4oqtvgJZPqDmneg2U7kf-13" value="Add token to Cache" style="rounded=0;whiteSpace=wrap;html=1;fillColor=#fff2cc;strokeColor=#d6b656;" vertex="1" parent="1">
          <mxGeometry x="670" y="230" width="120" height="60" as="geometry" />
        </mxCell>
        <mxCell id="4oqtvgJZPqDmneg2U7kf-17" value="Home Screen" style="rounded=0;whiteSpace=wrap;html=1;fillColor=#e1d5e7;strokeColor=#9673a6;" vertex="1" parent="1">
          <mxGeometry x="670" y="360" width="120" height="60" as="geometry" />
        </mxCell>
        <mxCell id="4oqtvgJZPqDmneg2U7kf-19" value="&lt;b&gt;Token Based Authentication&amp;nbsp;&lt;/b&gt;" style="text;html=1;align=center;verticalAlign=middle;resizable=0;points=[];autosize=1;strokeColor=none;" vertex="1" parent="1">
          <mxGeometry x="360" y="20" width="180" height="20" as="geometry" />
        </mxCell>
      </root>
    </mxGraphModel>
  </diagram>
</mxfile>
